# xmcd CD database file
#
# Track frame offsets:
#	150
#	17705
#	38190
#
# Disc length: 733 seconds
#
# Revision: 0
# Processed by: cddbd v1.4PL0 Copyright (c) Steve Scherf et al.
# Submitted via: CDex 1.50beta9
#
DISCID=1b02db03
DTITLE=Hue and Cry - Demonstration recordings
DYEAR=1998
DGENRE=Jazz
TTITLE0=Beautiful thing
TTITLE1=She moves through the wires
TTITLE2=Won't you let me be
EXTD=YEAR: 1998
EXTT0=
EXTT1=
EXTT2=
PLAYORDER=
